/* XPM */
static char *_2535d9947114f08bdeb67643111b658sWs8sG12zOMRyKJJ[] = {
/* columns rows colors chars-per-pixel */
"32 32 2 1 ",
"  c None",
". c white",
/* pixels */
"                                ",
"                                ",
"                                ",
"                                ",
"        ..................      ",
"        ..................      ",
"      ......................    ",
"      ......................    ",
"      ......................    ",
"      ......................    ",
"      ......................    ",
"      .....     ......     .    ",
"      .....     ......     .    ",
"      ...........    .......    ",
"      ...........    .......    ",
"        ..................      ",
"        ..................      ",
"        ..................      ",
"        ..................      ",
"               ......           ",
"               ......           ",
"      ....................      ",
"      ....................      ",
"  ....  ................  ....  ",
"  ....  ................  ....  ",
"  ....  ................  ....  ",
"  ....  ................  ....  ",
"  ....  ................  ....  ",
"      .....          .....      ",
"      .....          .....      ",
"      .......        .......    ",
"      .......        .......    "
};
