/* XPM */
static char *f08b520e92694efdd0004a1457884faeMzMbpR1ryIgHWxmA[] = {
/* columns rows colors chars-per-pixel */
"32 32 2 1 ",
"  c None",
". c white",
/* pixels */
"                                ",
"                                ",
"                                ",
"                                ",
"        ..................      ",
"        ..................      ",
"      ......................    ",
"      ......................    ",
"      .......  .........  ..    ",
"      .......  .........  ..    ",
"      .......  .........  ..    ",
"      .......  .........  ..    ",
"      .......  .........  ..    ",
"      ...........    .......    ",
"      ...........    .......    ",
"        ..................      ",
"        ..................      ",
"        ..................      ",
"        ..................      ",
"               ......           ",
"               ......           ",
"      ....................      ",
"      ....................      ",
"  ....  ................  ....  ",
"  ....  ................  ....  ",
"  ....  ................  ....  ",
"  ....  ................  ....  ",
"  ....  ................  ....  ",
"      .....          .....      ",
"      .....          .....      ",
"      .......        .......    ",
"      .......        .......    "
};
