/* XPM */
static char *_52319cc56844ffd8aeeba1008acac6f46O0AOiypKQ55tii[] = {
/* columns rows colors chars-per-pixel */
"32 32 2 1 ",
"  c None",
". c white",
/* pixels */
"        ..........        ......",
"        ..........        ......",
"..    ..  ..........    ..  ....",
"..    ..  ..........    ..  ....",
"..    ..  ..........    ..  ....",
"..    ..  ..........    ..  ....",
"....  ..  ..........  ..........",
"....  ..  ..........  ..........",
"....    ..  ........  ..........",
"....    ..  ........  ..........",
"..        ..........    ......  ",
"..        ..........    ......  ",
"..        ..........    ......  ",
"..        ..........    ......  ",
"    ......    ....        ......",
"    ......    ....        ......",
"  ........          ......      ",
"  ........          ......      ",
"........            ........    ",
"........            ........    ",
"........            ........    ",
"........            ........    ",
"......      ......    ..  ....  ",
"......      ......    ..  ....  ",
"          ..........    ......  ",
"          ..........    ......  ",
"  ....    ..........            ",
"  ....    ..........            ",
"  ....    ..........            ",
"  ....    ..........            ",
"........  ........    ....      ",
"........  ........    ....      "
};
